<?xml version="1.0" encoding="UTF-8"?>
<svg version="1.1" xmlns="http://www.w3.org/2000/svg" width="256" height="256">
<path d="M0 0 C1.97228459 -0.00842416 3.94456114 -0.01895413 5.91682434 -0.03141785 C11.24753118 -0.05837139 16.57776817 -0.05379012 21.90851283 -0.04171729 C26.36912868 -0.03456381 30.82965885 -0.04310032 35.290268 -0.05162269 C45.81794011 -0.07154516 56.34538496 -0.06603927 66.87304688 -0.04394531 C77.71197337 -0.02158378 88.55030417 -0.03918466 99.3891744 -0.0769946 C108.71694107 -0.108283 118.04452387 -0.11612804 127.37233645 -0.10504085 C132.93387299 -0.09857111 138.495066 -0.10047328 144.05656242 -0.12436485 C149.28784631 -0.14569564 154.51829328 -0.13753649 159.74952507 -0.10727119 C161.66181864 -0.10097106 163.57417794 -0.10473822 165.48642349 -0.11968231 C179.16658941 -0.21787225 188.57631238 1.59325964 199.39868164 10.6628418 C209.86249096 21.38824635 210.13137065 33.12076023 210.06152344 47.26416016 C210.0699476 49.23644475 210.08047756 51.20872129 210.09294128 53.1809845 C210.11989483 58.51169134 210.11531356 63.84192832 210.10324073 69.17267299 C210.09608724 73.63328883 210.10462376 78.09381901 210.11314613 82.55442816 C210.13306859 93.08210026 210.12756271 103.60954512 210.10546875 114.13720703 C210.08310721 124.97613352 210.1007081 135.81446433 210.13851804 146.65333456 C210.16980644 155.98110122 210.17765148 165.30868402 210.16656429 174.6364966 C210.16009455 180.19803314 210.16199671 185.75922616 210.18588829 191.32072258 C210.20721908 196.55200646 210.19905992 201.78245344 210.16879463 207.01368523 C210.16249449 208.9259788 210.16626166 210.83833809 210.18120575 212.75058365 C210.27939568 226.43074957 208.4682638 235.84047254 199.39868164 246.6628418 C188.67327709 257.12665112 176.94076321 257.3955308 162.79736328 257.32568359 C160.82507869 257.33410776 158.85280214 257.34463772 156.88053894 257.35710144 C151.5498321 257.38405499 146.21959511 257.37947372 140.88885045 257.36740088 C136.4282346 257.3602474 131.96770443 257.36878392 127.50709528 257.37730628 C116.97942317 257.39722875 106.45197832 257.39172286 95.92431641 257.36962891 C85.08538992 257.34726737 74.24705911 257.36486825 63.40818888 257.40267819 C54.08042221 257.43396659 44.75283942 257.44181163 35.42502683 257.43072444 C29.86349029 257.42425471 24.30229728 257.42615687 18.74080086 257.45004845 C13.50951697 257.47137924 8.27907 257.46322008 3.04783821 257.43295479 C1.13554464 257.42665465 -0.77681465 257.43042182 -2.68906021 257.44536591 C-16.36922613 257.54355584 -25.7789491 255.73242395 -36.60131836 246.6628418 C-47.06512768 235.93743724 -47.33400736 224.20492336 -47.26416016 210.06152344 C-47.27258432 208.08923884 -47.28311428 206.1169623 -47.295578 204.1446991 C-47.32253155 198.81399225 -47.31795028 193.48375527 -47.30587745 188.15301061 C-47.29872396 183.69239476 -47.30726048 179.23186458 -47.31578285 174.77125543 C-47.33570531 164.24358333 -47.33019943 153.71613848 -47.30810547 143.18847656 C-47.28574393 132.34955007 -47.30334481 121.51121927 -47.34115475 110.67234904 C-47.37244316 101.34458237 -47.3802882 92.01699957 -47.369201 82.68918699 C-47.36273127 77.12765045 -47.36463343 71.56645744 -47.38852501 66.00496101 C-47.4098558 60.77367713 -47.40169664 55.54323015 -47.37143135 50.31199837 C-47.36513121 48.3997048 -47.36889838 46.4873455 -47.38384247 44.57509995 C-47.4820324 30.89493403 -45.67090051 21.48521106 -36.60131836 10.6628418 C-25.8759138 0.19903248 -14.14339992 -0.06984721 0 0 Z " fill="#F43E37" transform="translate(46.601318359375,-0.662841796875)"/>
<path d="M0 0 C2.69697016 2.13415706 5.2235006 4.34954322 7.7265625 6.70703125 C9.03173828 7.91166016 9.03173828 7.91166016 10.36328125 9.140625 C25.63123951 23.76956557 38.20885783 46.52524337 38.82421875 68.13671875 C38.79166667 71.32682292 38.75911458 74.51692708 38.7265625 77.70703125 C30.8065625 77.70703125 22.8865625 77.70703125 14.7265625 77.70703125 C14.4996875 75.17015625 14.2728125 72.63328125 14.0390625 70.01953125 C11.91162929 50.47186586 1.80093035 34.05361174 -13.0859375 21.45703125 C-18.4154532 17.34782522 -24.16697133 14.4819069 -30.2734375 11.70703125 C-32.036875 10.84078125 -32.036875 10.84078125 -33.8359375 9.95703125 C-50.67006312 3.83553103 -70.56503464 5.46167386 -86.94140625 12.10546875 C-106.49202481 21.50260077 -119.01547011 37.57950506 -126.2734375 57.70703125 C-131.85672997 76.19333933 -128.10830165 96.0166393 -119.2734375 112.70703125 C-109.85085455 129.91248296 -95.56618941 140.19923354 -77.2734375 146.70703125 C-70.67444513 148.41440314 -64.05479266 148.95354734 -57.2734375 149.70703125 C-57.2734375 157.62703125 -57.2734375 165.54703125 -57.2734375 173.70703125 C-80.5786195 174.77853387 -103.22234498 166.01376339 -120.4609375 150.33203125 C-139.64168073 132.32873186 -152.214789 109.1801487 -153.72265625 82.6171875 C-154.52065715 56.46141248 -146.62455355 32.34141489 -128.52783203 13.0546875 C-93.52276513 -23.3648456 -41.55769966 -29.11022638 0 0 Z " fill="#FEFBFB" transform="translate(185.2734375,50.29296875)"/>
<path d="M0 0 C0.84433594 0.59941406 1.68867188 1.19882813 2.55859375 1.81640625 C13.90280741 10.36341654 22.27029505 21.85516524 25 36 C25.14706904 40.01650632 25.09038761 43.97775116 25 48 C18.07 48 11.14 48 4 48 C3.505 44.04 3.505 44.04 3 40 C0.71867717 29.62736669 -5.17164555 22.65014685 -14 17 C-22.84872231 12.06513564 -32.86540409 11.81257783 -42.76953125 13.4609375 C-51.66940283 16.11063657 -59.59509343 22.87116817 -64.09375 30.96875 C-67.9292902 39.56565046 -68.89260161 51.38468457 -65.875 60.3125 C-61.22671649 70.48198411 -54.72689359 76.73180548 -44.953125 81.984375 C-40.93397368 83.49294622 -40.93397368 83.49294622 -32 84 C-32 90.93 -32 97.86 -32 105 C-47.4824122 105.34791938 -60.56032061 100.81908195 -72 90 C-84.35663076 76.62886754 -89.21616835 64.31115142 -89.3125 46.125 C-89.31805908 45.23329102 -89.32361816 44.34158203 -89.3293457 43.42285156 C-89.17160843 29.05123302 -82.1297401 16.09702485 -72.05859375 6.06640625 C-52.58790454 -11.6515399 -22.08965973 -15.83990234 0 0 Z " fill="#FEFAFA" transform="translate(160,80)"/>
</svg>
